<svg width="918" height="468" xmlns="http://www.w3.org/2000/svg" xmlns:xlink="http://www.w3.org/1999/xlink" overflow="hidden"><defs><clipPath id="clip0"><rect x="123" y="165" width="918" height="468"/></clipPath></defs><g clip-path="url(#clip0)" transform="translate(-123 -165)"><rect x="501" y="169" width="161" height="385" stroke="#000000" stroke-width="4" stroke-miterlimit="8" fill="#FFFFFF"/><text font-family="Malgun Gothic,Malgun Gothic_MSFontService,sans-serif" font-weight="400" font-size="24" transform="translate(544.103 357)">Shared <tspan font-size="24" x="1.83331" y="28">Object</tspan></text><rect x="218" y="169" width="161" height="385" stroke="#000000" stroke-width="4" stroke-miterlimit="8" fill="#7F7F7F"/><text fill="#FFFFFF" font-family="Malgun Gothic,Malgun Gothic_MSFontService,sans-serif" font-weight="400" font-size="24" transform="translate(249.803 371)">Producer</text><rect x="877" y="169" width="162" height="65" stroke="#000000" stroke-width="4" stroke-miterlimit="8" fill="#203864"/><text fill="#FFFFFF" font-family="Malgun Gothic,Malgun Gothic_MSFontService,sans-serif" font-weight="400" font-size="24" transform="translate(891.924 211)">Consumer 0</text><rect x="877" y="247" width="162" height="65" stroke="#000000" stroke-width="4" stroke-miterlimit="8" fill="#203864"/><text fill="#FFFFFF" font-family="Malgun Gothic,Malgun Gothic_MSFontService,sans-serif" font-weight="400" font-size="24" transform="translate(891.924 289)">Consumer 1</text><rect x="877" y="325" width="162" height="65" stroke="#000000" stroke-width="4" stroke-miterlimit="8" fill="#203864"/><text fill="#FFFFFF" font-family="Malgun Gothic,Malgun Gothic_MSFontService,sans-serif" font-weight="400" font-size="24" transform="translate(891.924 367)">Consumer 2</text><rect x="877" y="403" width="162" height="65" stroke="#000000" stroke-width="4" stroke-miterlimit="8" fill="#203864"/><text fill="#FFFFFF" font-family="Malgun Gothic,Malgun Gothic_MSFontService,sans-serif" font-weight="400" font-size="24" transform="translate(891.924 445)">Consumer 3</text><rect x="877" y="481" width="162" height="64" stroke="#000000" stroke-width="4" stroke-miterlimit="8" fill="#203864"/><text fill="#FFFFFF" font-family="Malgun Gothic,Malgun Gothic_MSFontService,sans-serif" font-weight="400" font-size="24" transform="translate(891.923 523)">Consumer 4</text><path d="M865.5 377.5 739.5 377.5 739.5 384.5 725.5 370.5 739.5 356.5 739.5 363.5 865.5 363.5Z" stroke="#000000" stroke-width="1.33333" stroke-miterlimit="8" fill="#8497B0" fill-rule="evenodd"/><text font-family="Malgun Gothic,Malgun Gothic_MSFontService,sans-serif" font-weight="400" font-size="24" transform="translate(738.166 352)">Try Locking</text><path d="M867.5 302.5 741.5 302.5 741.5 309.5 727.5 295.5 741.5 281.5 741.5 288.5 867.5 288.5Z" stroke="#000000" stroke-width="1.33333" stroke-miterlimit="8" fill="#8497B0" fill-rule="evenodd"/><text font-family="Malgun Gothic,Malgun Gothic_MSFontService,sans-serif" font-weight="400" font-size="24" transform="translate(740.13 277)">Try Locking</text><path d="M866.5 455.5 739.5 455.5 739.5 462.5 725.5 448.5 739.5 434.5 739.5 441.5 866.5 441.5Z" stroke="#000000" stroke-width="1.33333" stroke-miterlimit="8" fill="#8497B0" fill-rule="evenodd"/><text font-family="Malgun Gothic,Malgun Gothic_MSFontService,sans-serif" font-weight="400" font-size="24" transform="translate(738.463 429)">Try Locking</text><path d="M865.5 535.5 739.5 535.5 739.5 542.5 725.5 528.5 739.5 514.5 739.5 521.5 865.5 521.5Z" stroke="#000000" stroke-width="1.33333" stroke-miterlimit="8" fill="#8497B0" fill-rule="evenodd"/><text font-family="Malgun Gothic,Malgun Gothic_MSFontService,sans-serif" font-weight="400" font-size="24" transform="translate(738.166 510)">Try Locking<tspan font-size="24" x="-574.585" y="74">I unlocked global mutex.</tspan><tspan font-size="24" x="-600.012" y="102">I don’t care consumer mutex.</tspan></text><path d="M867.5 222.5 741.5 222.5 741.5 229.5 727.5 215.5 741.5 201.5 741.5 208.5 867.5 208.5Z" stroke="#000000" stroke-width="1.33333" stroke-miterlimit="8" fill="#8497B0" fill-rule="evenodd"/><text font-family="Malgun Gothic,Malgun Gothic_MSFontService,sans-serif" font-weight="400" font-size="24" transform="translate(740.13 197)">Try Locking</text><rect x="508" y="430" width="147" height="64" stroke="#000000" stroke-width="4" stroke-miterlimit="8" fill="#70AD47"/><text fill="#FFFFFF" font-family="Malgun Gothic,Malgun Gothic_MSFontService,sans-serif" font-weight="400" font-size="24" transform="translate(526.516 457)">Consumer <tspan font-size="24" x="21.02" y="28">Mutex</tspan></text><rect x="508" y="217" width="147" height="64" stroke="#000000" stroke-width="4" stroke-miterlimit="8" fill="#70AD47"/><text fill="#FFFFFF" font-family="Malgun Gothic,Malgun Gothic_MSFontService,sans-serif" font-weight="400" font-size="24" transform="translate(546.853 244)">Global <tspan font-size="24" x="0.680054" y="28">Mutex</tspan></text></g></svg>