<svg width="848" height="385" xmlns="http://www.w3.org/2000/svg" xmlns:xlink="http://www.w3.org/1999/xlink" overflow="hidden"><defs><clipPath id="clip0"><rect x="154" y="165" width="848" height="385"/></clipPath></defs><g clip-path="url(#clip0)" transform="translate(-154 -165)"><rect x="501" y="168" width="161" height="379" stroke="#000000" stroke-width="4" stroke-miterlimit="8" fill="#FFFFFF"/><text font-family="Malgun Gothic,Malgun Gothic_MSFontService,sans-serif" font-weight="400" font-size="24" transform="translate(544.103 353)">Shared <tspan font-size="24" x="1.83331" y="28">Object</tspan></text><rect x="838" y="169" width="162" height="65" stroke="#000000" stroke-width="4" stroke-miterlimit="8" fill="#70AD47"/><text fill="#FFFFFF" font-family="Malgun Gothic,Malgun Gothic_MSFontService,sans-serif" font-weight="400" font-size="24" transform="translate(853.003 211)">Consumer 0</text><rect x="838" y="247" width="162" height="65" stroke="#000000" stroke-width="4" stroke-miterlimit="8" fill="#C00000"/><text fill="#FFFFFF" font-family="Malgun Gothic,Malgun Gothic_MSFontService,sans-serif" font-weight="400" font-size="24" transform="translate(853.003 289)">Consumer 1</text><rect x="838" y="325" width="162" height="65" stroke="#000000" stroke-width="4" stroke-miterlimit="8" fill="#C00000"/><text fill="#FFFFFF" font-family="Malgun Gothic,Malgun Gothic_MSFontService,sans-serif" font-weight="400" font-size="24" transform="translate(853.003 367)">Consumer 2</text><rect x="838" y="403" width="162" height="65" stroke="#000000" stroke-width="4" stroke-miterlimit="8" fill="#C00000"/><text fill="#FFFFFF" font-family="Malgun Gothic,Malgun Gothic_MSFontService,sans-serif" font-weight="400" font-size="24" transform="translate(853.003 445)">Consumer 3</text><rect x="838" y="481" width="162" height="64" stroke="#000000" stroke-width="4" stroke-miterlimit="8" fill="#C00000"/><text fill="#FFFFFF" font-family="Malgun Gothic,Malgun Gothic_MSFontService,sans-serif" font-weight="400" font-size="24" transform="translate(853.003 523)">Consumer 4</text><rect x="508" y="402" width="147" height="64" stroke="#000000" stroke-width="4" stroke-miterlimit="8" fill="#70AD47"/><text fill="#FFFFFF" font-family="Malgun Gothic,Malgun Gothic_MSFontService,sans-serif" font-weight="400" font-size="24" transform="translate(526.516 429)">Consumer <tspan font-size="24" x="21.02" y="28">Mutex</tspan></text><rect x="508" y="189" width="147" height="64" stroke="#000000" stroke-width="4" stroke-miterlimit="8" fill="#70AD47"/><text fill="#FFFFFF" font-family="Malgun Gothic,Malgun Gothic_MSFontService,sans-serif" font-weight="400" font-size="24" transform="translate(546.853 216)">Global <tspan font-size="24" x="0.680054" y="28">Mutex</tspan></text><path d="M820.5 377.5 693.5 377.5 693.5 384.5 679.5 370.5 693.5 356.5 693.5 363.5 820.5 363.5Z" stroke="#000000" stroke-width="1.33333" stroke-miterlimit="8" fill="#8497B0" fill-rule="evenodd"/><text font-family="Malgun Gothic,Malgun Gothic_MSFontService,sans-serif" font-weight="400" font-size="20" transform="translate(692.338 348)">I am blocked</text><path d="M822.5 302.5 695.5 302.5 695.5 309.5 681.5 295.5 695.5 281.5 695.5 288.5 822.5 288.5Z" stroke="#000000" stroke-width="1.33333" stroke-miterlimit="8" fill="#8497B0" fill-rule="evenodd"/><text font-family="Malgun Gothic,Malgun Gothic_MSFontService,sans-serif" font-weight="400" font-size="20" transform="translate(694.302 273)">I am blocked</text><path d="M820.5 455.5 693.5 455.5 693.5 462.5 679.5 448.5 693.5 434.5 693.5 441.5 820.5 441.5Z" stroke="#000000" stroke-width="1.33333" stroke-miterlimit="8" fill="#8497B0" fill-rule="evenodd"/><text font-family="Malgun Gothic,Malgun Gothic_MSFontService,sans-serif" font-weight="400" font-size="20" transform="translate(692.635 425)">I am blocked</text><path d="M820.5 535.5 693.5 535.5 693.5 542.5 679.5 528.5 693.5 514.5 693.5 521.5 820.5 521.5Z" stroke="#000000" stroke-width="1.33333" stroke-miterlimit="8" fill="#8497B0" fill-rule="evenodd"/><text font-family="Malgun Gothic,Malgun Gothic_MSFontService,sans-serif" font-weight="400" font-size="20" transform="translate(692.338 506)">I am blocked</text><path d="M822.5 222.5 695.5 222.5 695.5 229.5 681.5 215.5 695.5 201.5 695.5 208.5 822.5 208.5Z" stroke="#000000" stroke-width="1.33333" stroke-miterlimit="8" fill="#8497B0" fill-rule="evenodd"/><text font-family="Malgun Gothic,Malgun Gothic_MSFontService,sans-serif" font-weight="400" font-size="24" transform="translate(703.388 197)">I locked!</text><rect x="157" y="169" width="161" height="65" stroke="#000000" stroke-width="4" stroke-miterlimit="8" fill="#70AD47"/><text fill="#FFFFFF" font-family="Malgun Gothic,Malgun Gothic_MSFontService,sans-serif" font-weight="400" font-size="24" transform="translate(177.86 211)">Producer 0</text><rect x="157" y="247" width="161" height="65" stroke="#000000" stroke-width="4" stroke-miterlimit="8" fill="#C00000"/><text fill="#FFFFFF" font-family="Malgun Gothic,Malgun Gothic_MSFontService,sans-serif" font-weight="400" font-size="24" transform="translate(177.86 289)">Producer 1</text><rect x="157" y="325" width="161" height="65" stroke="#000000" stroke-width="4" stroke-miterlimit="8" fill="#C00000"/><text fill="#FFFFFF" font-family="Malgun Gothic,Malgun Gothic_MSFontService,sans-serif" font-weight="400" font-size="24" transform="translate(177.86 367)">Producer 2</text><rect x="157" y="403" width="161" height="65" stroke="#000000" stroke-width="4" stroke-miterlimit="8" fill="#C00000"/><text fill="#FFFFFF" font-family="Malgun Gothic,Malgun Gothic_MSFontService,sans-serif" font-weight="400" font-size="24" transform="translate(177.86 445)">Producer 3</text><rect x="157" y="481" width="161" height="64" stroke="#000000" stroke-width="4" stroke-miterlimit="8" fill="#C00000"/><text fill="#FFFFFF" font-family="Malgun Gothic,Malgun Gothic_MSFontService,sans-serif" font-weight="400" font-size="24" transform="translate(177.86 523)">Producer 4</text><path d="M338.5 368.5 464.5 368.5 464.5 361.5 478.5 375.5 464.5 389.5 464.5 382.5 338.5 382.5Z" stroke="#000000" stroke-width="1.33333" stroke-miterlimit="8" fill="#8497B0" fill-rule="evenodd"/><text font-family="Malgun Gothic,Malgun Gothic_MSFontService,sans-serif" font-weight="400" font-size="20" transform="translate(351.112 352)">I am blocked</text><path d="M340.5 293.5 466.5 293.5 466.5 286.5 480.5 300.5 466.5 314.5 466.5 307.5 340.5 307.5Z" stroke="#000000" stroke-width="1.33333" stroke-miterlimit="8" fill="#8497B0" fill-rule="evenodd"/><text font-family="Malgun Gothic,Malgun Gothic_MSFontService,sans-serif" font-weight="400" font-size="20" transform="translate(353.075 278)">I am blocked</text><path d="M338.5 445.5 465.5 445.5 465.5 438.5 479.5 452.5 465.5 466.5 465.5 459.5 338.5 459.5Z" stroke="#000000" stroke-width="1.33333" stroke-miterlimit="8" fill="#8497B0" fill-rule="evenodd"/><text font-family="Malgun Gothic,Malgun Gothic_MSFontService,sans-serif" font-weight="400" font-size="20" transform="translate(351.409 430)">I am blocked</text><path d="M338.5 526.5 464.5 526.5 464.5 519.5 478.5 533.5 464.5 547.5 464.5 540.5 338.5 540.5Z" stroke="#000000" stroke-width="1.33333" stroke-miterlimit="8" fill="#8497B0" fill-rule="evenodd"/><text font-family="Malgun Gothic,Malgun Gothic_MSFontService,sans-serif" font-weight="400" font-size="20" transform="translate(351.112 511)">I am blocked</text><path d="M340.5 213.5 466.5 213.5 466.5 206.5 480.5 220.5 466.5 234.5 466.5 227.5 340.5 227.5Z" stroke="#000000" stroke-width="1.33333" stroke-miterlimit="8" fill="#8497B0" fill-rule="evenodd"/><text font-family="Malgun Gothic,Malgun Gothic_MSFontService,sans-serif" font-weight="400" font-size="24" transform="translate(362.161 202)">I locked!</text><rect x="508" y="473" width="147" height="64" stroke="#000000" stroke-width="4" stroke-miterlimit="8" fill="#70AD47"/><text fill="#FFFFFF" font-family="Malgun Gothic,Malgun Gothic_MSFontService,sans-serif" font-weight="400" font-size="24" transform="translate(532.936 500)">Producer <tspan font-size="24" x="14.6" y="28">Mutex</tspan></text></g></svg>