<svg width="1219" height="444" xmlns="http://www.w3.org/2000/svg" xmlns:xlink="http://www.w3.org/1999/xlink" overflow="hidden"><defs><clipPath id="clip0"><rect x="12" y="49" width="1219" height="444"/></clipPath></defs><g clip-path="url(#clip0)" transform="translate(-12 -49)"><rect x="441.5" y="127.5" width="208" height="60" stroke="#000000" stroke-width="1.33333" stroke-miterlimit="8" fill="#70AD47"/><text fill="#FFFFFF" font-family="Malgun Gothic,Malgun Gothic_MSFontService,sans-serif" font-weight="400" font-size="20" transform="translate(460.874 165)">Producer Thread 1</text><rect x="441.5" y="224.5" width="208" height="60" stroke="#000000" stroke-width="1.33333" stroke-miterlimit="8" fill="#70AD47"/><text fill="#FFFFFF" font-family="Malgun Gothic,Malgun Gothic_MSFontService,sans-serif" font-weight="400" font-size="20" transform="translate(460.874 262)">Producer Thread 2</text><rect x="441.5" y="313.5" width="208" height="61" stroke="#000000" stroke-width="1.33333" stroke-miterlimit="8" fill="#70AD47"/><text fill="#FFFFFF" font-family="Malgun Gothic,Malgun Gothic_MSFontService,sans-serif" font-weight="400" font-size="20" transform="translate(460.874 351)">Producer Thread 3</text><rect x="441.5" y="406.5" width="208" height="60" stroke="#000000" stroke-width="1.33333" stroke-miterlimit="8" fill="#70AD47"/><text fill="#FFFFFF" font-family="Malgun Gothic,Malgun Gothic_MSFontService,sans-serif" font-weight="400" font-size="20" transform="translate(460.874 444)">Producer Thread 4<tspan fill="#000000" font-size="24" x="-433.573" y="-317">0x0000</tspan><tspan fill="#000000" font-size="24" x="-433.573" y="29">0x4000</tspan><tspan fill="#000000" font-size="24" x="-433.573" y="-144">0x2000</tspan><tspan fill="#000000" font-size="24" x="-433.573" y="-230">0x1000</tspan><tspan fill="#000000" font-size="24" x="-433.573" y="-58">0x3000</tspan></text><rect x="115.5" y="50.5001" width="229" height="433" stroke="#000000" stroke-width="1.33333" stroke-miterlimit="8" fill="#AFABAB"/><rect x="115.5" y="50.5001" width="229" height="60" stroke="#000000" stroke-width="1.33333" stroke-miterlimit="8" fill="#4472C4"/><text fill="#FFFFFF" font-family="Malgun Gothic,Malgun Gothic_MSFontService,sans-serif" font-weight="400" font-size="24" transform="translate(189.567 90)">Big File</text><path d="M115 206 343.785 206" stroke="#000000" stroke-width="2" stroke-miterlimit="8" stroke-dasharray="8 6" fill="none" fill-rule="evenodd"/><path d="M115 299 343.785 299" stroke="#000000" stroke-width="2" stroke-miterlimit="8" stroke-dasharray="8 6" fill="none" fill-rule="evenodd"/><path d="M115 387 343.785 387" stroke="#000000" stroke-width="2" stroke-miterlimit="8" stroke-dasharray="8 6" fill="none" fill-rule="evenodd"/><path d="M441.5 159 431 169.5 431 164.25 344.5 164.25 344.5 153.75 431 153.75 431 148.5Z" stroke="#000000" stroke-width="1.33333" stroke-miterlimit="8" fill-rule="evenodd"/><path d="M441.5 255 431 265.5 431 260.25 344.5 260.25 344.5 249.75 431 249.75 431 244.5Z" stroke="#000000" stroke-width="1.33333" stroke-miterlimit="8" fill-rule="evenodd"/><path d="M441.5 344.5 430.5 355.5 430.5 350 344.5 350 344.5 339 430.5 339 430.5 333.5Z" stroke="#000000" stroke-width="1.33333" stroke-miterlimit="8" fill-rule="evenodd"/><path d="M441.5 437 431 447.5 431 442.25 344.5 442.25 344.5 431.75 431 431.75 431 426.5Z" stroke="#000000" stroke-width="1.33333" stroke-miterlimit="8" fill-rule="evenodd"/><text font-family="Malgun Gothic,Malgun Gothic_MSFontService,sans-serif" font-weight="400" font-size="20" transform="translate(364.953 128)">Read<tspan font-size="20" x="0" y="102">Read</tspan><tspan font-size="20" x="-0.00012207" y="191">Read</tspan><tspan font-size="20" x="-0.000213623" y="282">Read</tspan></text><rect x="746.5" y="125.5" width="179" height="60" stroke="#000000" stroke-width="1.33333" stroke-miterlimit="8" fill="#C55A11"/><text fill="#FFFFFF" font-family="Malgun Gothic,Malgun Gothic_MSFontService,sans-serif" font-weight="400" font-size="20" transform="translate(762.093 163)">Shared Object 1</text><rect x="746.5" y="222.5" width="179" height="60" stroke="#000000" stroke-width="1.33333" stroke-miterlimit="8" fill="#C55A11"/><text fill="#FFFFFF" font-family="Malgun Gothic,Malgun Gothic_MSFontService,sans-serif" font-weight="400" font-size="20" transform="translate(762.093 260)">Shared Object 2</text><rect x="746.5" y="311.5" width="179" height="61" stroke="#000000" stroke-width="1.33333" stroke-miterlimit="8" fill="#C55A11"/><text fill="#FFFFFF" font-family="Malgun Gothic,Malgun Gothic_MSFontService,sans-serif" font-weight="400" font-size="20" transform="translate(762.093 349)">Shared Object 3</text><rect x="746.5" y="404.5" width="179" height="60" stroke="#000000" stroke-width="1.33333" stroke-miterlimit="8" fill="#C55A11"/><text fill="#FFFFFF" font-family="Malgun Gothic,Malgun Gothic_MSFontService,sans-serif" font-weight="400" font-size="20" transform="translate(762.093 442)">Shared Object 4</text><path d="M746.5 157 736 167.5 736 162.25 649.5 162.25 649.5 151.75 736 151.75 736 146.5Z" stroke="#000000" stroke-width="1.33333" stroke-miterlimit="8" fill-rule="evenodd"/><path d="M746.5 253 736 263.5 736 258.25 649.5 258.25 649.5 247.75 736 247.75 736 242.5Z" stroke="#000000" stroke-width="1.33333" stroke-miterlimit="8" fill-rule="evenodd"/><path d="M746.5 342.5 735.5 353.5 735.5 348 649.5 348 649.5 337 735.5 337 735.5 331.5Z" stroke="#000000" stroke-width="1.33333" stroke-miterlimit="8" fill-rule="evenodd"/><path d="M746.5 435 736 445.5 736 440.25 649.5 440.25 649.5 429.75 736 429.75 736 424.5Z" stroke="#000000" stroke-width="1.33333" stroke-miterlimit="8" fill-rule="evenodd"/><text font-family="Malgun Gothic,Malgun Gothic_MSFontService,sans-serif" font-weight="400" font-size="20" transform="translate(669.916 126)">Store<tspan font-size="20" x="0" y="102">Store</tspan><tspan font-size="20" x="-0.00012207" y="191">Store</tspan><tspan font-size="20" x="-0.000244141" y="282">Store</tspan></text><rect x="1022.5" y="121.5" width="208" height="60" stroke="#000000" stroke-width="1.33333" stroke-miterlimit="8" fill="#7030A0"/><text fill="#FFFFFF" font-family="Malgun Gothic,Malgun Gothic_MSFontService,sans-serif" font-weight="400" font-size="20" transform="translate(1036.78 159)">Consumer Thread 1</text><rect x="1022.5" y="218.5" width="208" height="60" stroke="#000000" stroke-width="1.33333" stroke-miterlimit="8" fill="#7030A0"/><text fill="#FFFFFF" font-family="Malgun Gothic,Malgun Gothic_MSFontService,sans-serif" font-weight="400" font-size="20" transform="translate(1036.78 256)">Consumer Thread 2</text><rect x="1022.5" y="308.5" width="208" height="60" stroke="#000000" stroke-width="1.33333" stroke-miterlimit="8" fill="#7030A0"/><text fill="#FFFFFF" font-family="Malgun Gothic,Malgun Gothic_MSFontService,sans-serif" font-weight="400" font-size="20" transform="translate(1036.78 346)">Consumer Thread 3</text><rect x="1022.5" y="401.5" width="208" height="60" stroke="#000000" stroke-width="1.33333" stroke-miterlimit="8" fill="#7030A0"/><text fill="#FFFFFF" font-family="Malgun Gothic,Malgun Gothic_MSFontService,sans-serif" font-weight="400" font-size="20" transform="translate(1036.78 439)">Consumer Thread 4</text><path d="M925.5 153.5 936.5 142.5 936.5 148 1022.5 148 1022.5 159 936.5 159 936.5 164.5Z" stroke="#000000" stroke-width="1.33333" stroke-miterlimit="8" fill-rule="evenodd"/><path d="M925.5 249 936 238.5 936 243.75 1022.5 243.75 1022.5 254.25 936 254.25 936 259.5Z" stroke="#000000" stroke-width="1.33333" stroke-miterlimit="8" fill-rule="evenodd"/><path d="M925.5 339 936 328.5 936 333.75 1022.5 333.75 1022.5 344.25 936 344.25 936 349.5Z" stroke="#000000" stroke-width="1.33333" stroke-miterlimit="8" fill-rule="evenodd"/><path d="M925.5 431 936 420.5 936 425.75 1022.5 425.75 1022.5 436.25 936 436.25 936 441.5Z" stroke="#000000" stroke-width="1.33333" stroke-miterlimit="8" fill-rule="evenodd"/><text font-family="Malgun Gothic,Malgun Gothic_MSFontService,sans-serif" font-weight="400" font-size="20" transform="translate(946.336 123)">Read<tspan font-size="20" x="0" y="101">Read</tspan><tspan font-size="20" x="-0.00012207" y="191">Read</tspan><tspan font-size="20" x="-0.000183105" y="282">Read</tspan></text></g></svg>