<svg width="1048" height="649" xmlns="http://www.w3.org/2000/svg" xmlns:xlink="http://www.w3.org/1999/xlink" overflow="hidden"><defs><clipPath id="clip0"><rect x="85" y="38" width="1048" height="649"/></clipPath></defs><g clip-path="url(#clip0)" transform="translate(-85 -38)"><path d="M901 439 907 439 907 445 901 445ZM913 439 919 439 919 445 913 445ZM925 439 931 439 931 445 925 445ZM937 439 943 439 943 445 937 445ZM949 439 955 439 955 445 949 445ZM961 439 967 439 967 445 961 445ZM973 439 979 439 979 445 973 445ZM985 439 991 439 991 445 985 445ZM997 439 1003 439 1003 445 997 445ZM1009 439 1015 439 1015 445 1009 445ZM1021 439 1027 439 1027 445 1021 445ZM1033 439 1039 439 1039 445 1033 445ZM1045 439 1051 439 1051 445 1045 445ZM1057 439 1063 439 1063 445 1057 445ZM1069 439 1075 439 1075 445 1069 445ZM1081 439 1087 439 1087 445 1081 445ZM1093 439 1099 439 1099 445 1093 445ZM1096.06 433 1114.06 442 1096.06 451Z"/><path d="M784.007 82 790.007 82.0134 789.993 88.0134 783.993 88ZM796.007 82.0268 802.007 82.0402 801.993 88.0402 795.993 88.0268ZM808.007 82.0536 814.007 82.067 813.993 88.067 807.993 88.0536ZM820.007 82.0804 826.007 82.0938 825.993 88.0938 819.993 88.0804ZM832.007 82.1072 838.007 82.1206 837.993 88.1206 831.993 88.1072ZM844.007 82.134 850.007 82.1474 849.993 88.1474 843.993 88.134ZM856.007 82.1608 862.007 82.1742 861.993 88.1742 855.993 88.1608ZM868.006 82.1876 874.006 82.201 873.993 88.201 867.993 88.1876ZM880.006 82.2144 886.006 82.2278 885.993 88.2278 879.993 88.2144ZM892.006 82.2412 898.006 82.2546 897.993 88.2546 891.993 88.2412ZM904.006 82.268 910.006 82.2814 909.993 88.2814 903.993 88.268ZM916.006 82.2948 922.006 82.3082 921.993 88.3082 915.993 88.2948ZM928.006 82.3216 934.006 82.335 933.993 88.335 927.993 88.3216ZM940.006 82.3484 946.006 82.3618 945.993 88.3618 939.993 88.3484ZM952.006 82.3752 958.006 82.3886 957.993 88.3885 951.993 88.3752ZM964.006 82.402 970.006 82.4154 969.993 88.4153 963.993 88.4019ZM976.006 82.4288 982.006 82.4422 981.993 88.4421 975.993 88.4287ZM988.006 82.4556 994.006 82.469 993.993 88.4689 987.993 88.4555ZM1000.01 82.4824 1006.01 82.4958 1005.99 88.4957 999.993 88.4823ZM1012.01 82.5091 1018.01 82.5226 1017.99 88.5225 1011.99 88.5091ZM1024.01 82.5359 1030.01 82.5493 1029.99 88.5493 1023.99 88.5359ZM1036.01 82.5627 1042.01 82.5761 1041.99 88.5761 1035.99 88.5627ZM1048.01 82.5895 1054.01 82.6029 1053.99 88.6029 1047.99 88.5895ZM1060.01 82.6163 1066.01 82.6297 1065.99 88.6297 1059.99 88.6163ZM1072.01 82.6431 1078.01 82.6565 1077.99 88.6565 1071.99 88.6431ZM1084.01 82.6699 1090.01 82.6833 1089.99 88.6833 1083.99 88.6699ZM1096.01 82.6967 1097.31 82.6996 1097.29 88.6996 1095.99 88.6967ZM1094.32 76.6929 1112.3 85.7331 1094.28 94.6929Z"/><path d="M674 442 720.61 442.136" stroke="#000000" stroke-width="6" stroke-miterlimit="8" fill="none" fill-rule="evenodd"/><path d="M91 442 372.51 442" stroke="#000000" stroke-width="6" stroke-miterlimit="8" stroke-dasharray="6 6" fill="none" fill-rule="evenodd"/><path d="M573 86 786.825 86.0001" stroke="#000000" stroke-width="6" stroke-miterlimit="8" fill="none" fill-rule="evenodd"/><path d="M476 86 573.49 86.0001" stroke="#000000" stroke-width="6" stroke-miterlimit="8" stroke-dasharray="6 6" fill="none" fill-rule="evenodd"/><path d="M91 86 372.51 86.0001" stroke="#000000" stroke-width="6" stroke-miterlimit="8" stroke-dasharray="6 6" fill="none" fill-rule="evenodd"/><path d="M400 442 491.055 442" stroke="#000000" stroke-width="6" stroke-miterlimit="8" stroke-dasharray="6 6" fill="none" fill-rule="evenodd"/><path d="M367 86 476.74 86.0001" stroke="#000000" stroke-width="6" stroke-miterlimit="8" fill="none" fill-rule="evenodd"/><text font-family="Malgun Gothic,Malgun Gothic_MSFontService,sans-serif" font-weight="700" font-size="24" transform="translate(100.382 70)">Producer Worker 1</text><path d="M91 218 1094.83 218" stroke="#000000" stroke-width="6" stroke-miterlimit="8" fill="none" fill-rule="evenodd"/><text font-family="Malgun Gothic,Malgun Gothic_MSFontService,sans-serif" font-weight="700" font-size="24" transform="translate(100.382 202)">Producer Handler</text><path d="M358 442 404.61 442.136" stroke="#000000" stroke-width="6" stroke-miterlimit="8" fill="none" fill-rule="evenodd"/><text font-family="Malgun Gothic,Malgun Gothic_MSFontService,sans-serif" font-weight="700" font-size="24" transform="translate(100.382 425)">Consumer Worker 1</text><path d="M91 574 1094.83 574" stroke="#000000" stroke-width="6" stroke-miterlimit="8" fill="none" fill-rule="evenodd"/><text font-family="Malgun Gothic,Malgun Gothic_MSFontService,sans-serif" font-weight="700" font-size="24" transform="translate(100.382 558)">Consumer Handler</text><path d="M885 571 1099.41 571 1099.41 577 885 577ZM1096.41 565 1114.41 574 1096.41 583Z"/><rect x="225.5" y="281.5" width="379" height="79" stroke="#2F528F" stroke-width="1.33333" stroke-miterlimit="8" fill="#44546A"/><text fill="#FFFFFF" font-family="Malgun Gothic,Malgun Gothic_MSFontService,sans-serif" font-weight="700" font-size="24" transform="translate(322.502 330)">Shared Object 1</text><rect x="658.5" y="280.5" width="378" height="79" stroke="#2F528F" stroke-width="1.33333" stroke-miterlimit="8" fill="#44546A"/><text fill="#FFFFFF" font-family="Malgun Gothic,Malgun Gothic_MSFontService,sans-serif" font-weight="700" font-size="24" transform="translate(755.038 329)">Shared Object 2</text><path d="M358.5 86.5001C358.5 81.5295 362.753 77.5001 368 77.5001 373.247 77.5001 377.5 81.5295 377.5 86.5001 377.5 91.4706 373.247 95.5001 368 95.5001 362.753 95.5001 358.5 91.4706 358.5 86.5001Z" stroke="#2F528F" stroke-width="1.33333" stroke-miterlimit="8" fill="#4472C4" fill-rule="evenodd"/><path d="M361.5 99 368 92.5001 374.5 99 371.25 99 371.25 218.5 364.75 218.5 364.75 99Z" stroke="#000000" stroke-width="1.33333" stroke-miterlimit="8" fill="#70AD47" fill-rule="evenodd"/><path d="M396.5 86.5001C396.5 81.5295 400.53 77.5001 405.5 77.5001 410.471 77.5001 414.5 81.5295 414.5 86.5001 414.5 91.4706 410.471 95.5001 405.5 95.5001 400.53 95.5001 396.5 91.4706 396.5 86.5001Z" stroke="#2F528F" stroke-width="1.33333" stroke-miterlimit="8" fill="#4472C4" fill-rule="evenodd"/><path d="M412.5 273.5 405.5 280.5 398.5 273.5 402 273.5 402 95.5001 409 95.5001 409 273.5Z" stroke="#000000" stroke-width="1.33333" stroke-miterlimit="8" fill-rule="evenodd"/><path d="M358.5 442C358.5 436.753 362.753 432.5 368 432.5 373.247 432.5 377.5 436.753 377.5 442 377.5 447.247 373.247 451.5 368 451.5 362.753 451.5 358.5 447.247 358.5 442Z" stroke="#2F528F" stroke-width="1.33333" stroke-miterlimit="8" fill="#4472C4" fill-rule="evenodd"/><path d="M361.5 455 368 448.5 374.5 455 371.25 455 371.25 574.5 364.75 574.5 364.75 455Z" stroke="#000000" stroke-width="1.33333" stroke-miterlimit="8" fill="#70AD47" fill-rule="evenodd"/><path d="M395.5 442C395.5 436.753 399.753 432.5 405 432.5 410.247 432.5 414.5 436.753 414.5 442 414.5 447.247 410.247 451.5 405 451.5 399.753 451.5 395.5 447.247 395.5 442Z" stroke="#2F528F" stroke-width="1.33333" stroke-miterlimit="8" fill="#4472C4" fill-rule="evenodd"/><path d="M398.5 366.5 404.5 360.5 410.5 366.5 407.5 366.5 407.5 431.5 401.5 431.5 401.5 366.5Z" stroke="#000000" stroke-width="1.33333" stroke-miterlimit="8" fill-rule="evenodd"/><text font-family="Malgun Gothic,Malgun Gothic_MSFontService,sans-serif" font-weight="400" font-size="24" transform="translate(414.551 258)">Lock<tspan font-size="24" x="3.76968" y="147">Wait</tspan></text><path d="M464.5 101 471 94.5001 477.5 101 474.25 101 474.25 279.5 467.75 279.5 467.75 101Z" stroke="#000000" stroke-width="1.33333" stroke-miterlimit="8" fill-rule="evenodd"/><path d="M461.5 84.5001C461.5 79.5295 465.753 75.5001 471 75.5001 476.247 75.5001 480.5 79.5295 480.5 84.5001 480.5 89.4706 476.247 93.5001 471 93.5001 465.753 93.5001 461.5 89.4706 461.5 84.5001Z" stroke="#2F528F" stroke-width="1.33333" stroke-miterlimit="8" fill="#4472C4" fill-rule="evenodd"/><text font-family="Malgun Gothic,Malgun Gothic_MSFontService,sans-serif" font-weight="400" font-size="24" transform="translate(486.722 258)">Unlock</text><path d="M484 442 596.171 442.765" stroke="#000000" stroke-width="6" stroke-miterlimit="8" fill="none" fill-rule="evenodd"/><path d="M480.5 440.5C480.5 435.53 484.53 431.5 489.5 431.5 494.471 431.5 498.5 435.53 498.5 440.5 498.5 445.471 494.471 449.5 489.5 449.5 484.53 449.5 480.5 445.471 480.5 440.5Z" stroke="#2F528F" stroke-width="1.33333" stroke-miterlimit="8" fill="#4472C4" fill-rule="evenodd"/><path d="M482.5 366 489 359.5 495.5 366 492.25 366 492.25 429.5 485.75 429.5 485.75 366Z" stroke="#000000" stroke-width="1.33333" stroke-miterlimit="8" fill-rule="evenodd"/><text font-family="Malgun Gothic,Malgun Gothic_MSFontService,sans-serif" font-weight="400" font-size="24" transform="translate(514.213 405)">Lock</text><path d="M565.5 84.0001C565.5 78.7533 569.753 74.5001 575 74.5001 580.247 74.5001 584.5 78.7533 584.5 84.0001 584.5 89.2468 580.247 93.5001 575 93.5001 569.753 93.5001 565.5 89.2468 565.5 84.0001Z" stroke="#2F528F" stroke-width="1.33333" stroke-miterlimit="8" fill="#4472C4" fill-rule="evenodd"/><path d="M567.5 97.5001 574.5 90.5001 581.5 97.5001 578 97.5001 578 216.5 571 216.5 571 97.5001Z" stroke="#000000" stroke-width="1.33333" stroke-miterlimit="8" fill="#70AD47" fill-rule="evenodd"/><path d="M710.5 84.0001C710.5 78.7533 714.529 74.5001 719.5 74.5001 724.471 74.5001 728.5 78.7533 728.5 84.0001 728.5 89.2468 724.471 93.5001 719.5 93.5001 714.529 93.5001 710.5 89.2468 710.5 84.0001Z" stroke="#2F528F" stroke-width="1.33333" stroke-miterlimit="8" fill="#4472C4" fill-rule="evenodd"/><path d="M726.5 271.5 719.5 278.5 712.5 271.5 716 271.5 716 93.5001 723 93.5001 723 271.5Z" stroke="#000000" stroke-width="1.33333" stroke-miterlimit="8" fill-rule="evenodd"/><text font-family="Malgun Gothic,Malgun Gothic_MSFontService,sans-serif" font-weight="400" font-size="24" transform="translate(728.448 256)">Lock</text><path d="M777.5 99.5001 784.5 92.5001 791.5 99.5001 788 99.5001 788 277.5 781 277.5 781 99.5001Z" stroke="#000000" stroke-width="1.33333" stroke-miterlimit="8" fill-rule="evenodd"/><path d="M775.5 82.0001C775.5 76.7533 779.753 72.5001 785 72.5001 790.247 72.5001 794.5 76.7533 794.5 82.0001 794.5 87.2468 790.247 91.5001 785 91.5001 779.753 91.5001 775.5 87.2468 775.5 82.0001Z" stroke="#2F528F" stroke-width="1.33333" stroke-miterlimit="8" fill="#4472C4" fill-rule="evenodd"/><text font-family="Malgun Gothic,Malgun Gothic_MSFontService,sans-serif" font-weight="400" font-size="24" transform="translate(800.619 256)">Unlock</text><path d="M594.5 425 588 431.5 581.5 425 584.75 425 584.75 361.5 591.25 361.5 591.25 425Z" stroke="#000000" stroke-width="1.33333" stroke-miterlimit="8" fill-rule="evenodd"/><path d="M578.5 443C578.5 437.753 582.753 433.5 588 433.5 593.247 433.5 597.5 437.753 597.5 443 597.5 448.247 593.247 452.5 588 452.5 582.753 452.5 578.5 448.247 578.5 443Z" stroke="#2F528F" stroke-width="1.33333" stroke-miterlimit="8" fill="#4472C4" fill-rule="evenodd"/><text font-family="Malgun Gothic,Malgun Gothic_MSFontService,sans-serif" font-weight="400" font-size="24" transform="translate(607.953 405)">Unlock</text><path d="M883 215 1097.41 215 1097.41 221 883 221ZM1094.41 209 1112.41 218 1094.41 227Z"/><path d="M714 442 805.055 442" stroke="#000000" stroke-width="6" stroke-miterlimit="8" stroke-dasharray="6 6" fill="none" fill-rule="evenodd"/><path d="M709.5 442C709.5 436.753 713.753 432.5 719 432.5 724.247 432.5 728.5 436.753 728.5 442 728.5 447.247 724.247 451.5 719 451.5 713.753 451.5 709.5 447.247 709.5 442Z" stroke="#2F528F" stroke-width="1.33333" stroke-miterlimit="8" fill="#4472C4" fill-rule="evenodd"/><path d="M712.5 366.5 718.5 360.5 724.5 366.5 721.5 366.5 721.5 431.5 715.5 431.5 715.5 366.5Z" stroke="#000000" stroke-width="1.33333" stroke-miterlimit="8" fill-rule="evenodd"/><text font-family="Malgun Gothic,Malgun Gothic_MSFontService,sans-serif" font-weight="400" font-size="24" transform="translate(732.218 405)">Wait</text><path d="M798 442 910.171 442.765" stroke="#000000" stroke-width="6" stroke-miterlimit="8" fill="none" fill-rule="evenodd"/><path d="M794.5 440.5C794.5 435.53 798.529 431.5 803.5 431.5 808.471 431.5 812.5 435.53 812.5 440.5 812.5 445.471 808.471 449.5 803.5 449.5 798.529 449.5 794.5 445.471 794.5 440.5Z" stroke="#2F528F" stroke-width="1.33333" stroke-miterlimit="8" fill="#4472C4" fill-rule="evenodd"/><path d="M796.5 366 803 359.5 809.5 366 806.25 366 806.25 429.5 799.75 429.5 799.75 366Z" stroke="#000000" stroke-width="1.33333" stroke-miterlimit="8" fill-rule="evenodd"/><text font-family="Malgun Gothic,Malgun Gothic_MSFontService,sans-serif" font-weight="400" font-size="24" transform="translate(828.111 405)">Lock</text><path d="M908.5 425 902 431.5 895.5 425 898.75 425 898.75 361.5 905.25 361.5 905.25 425Z" stroke="#000000" stroke-width="1.33333" stroke-miterlimit="8" fill-rule="evenodd"/><path d="M892.5 443C892.5 437.753 896.753 433.5 902 433.5 907.247 433.5 911.5 437.753 911.5 443 911.5 448.247 907.247 452.5 902 452.5 896.753 452.5 892.5 448.247 892.5 443Z" stroke="#2F528F" stroke-width="1.33333" stroke-miterlimit="8" fill="#4472C4" fill-rule="evenodd"/><text font-family="Malgun Gothic,Malgun Gothic_MSFontService,sans-serif" font-weight="400" font-size="24" transform="translate(921.851 405)">Unlock</text><path d="M590 442 665.188 442" stroke="#000000" stroke-width="6" stroke-miterlimit="8" stroke-dasharray="6 6" fill="none" fill-rule="evenodd"/><path d="M665.5 443C665.5 437.753 669.753 433.5 675 433.5 680.247 433.5 684.5 437.753 684.5 443 684.5 448.247 680.247 452.5 675 452.5 669.753 452.5 665.5 448.247 665.5 443Z" stroke="#2F528F" stroke-width="1.33333" stroke-miterlimit="8" fill="#4472C4" fill-rule="evenodd"/><path d="M667.5 456.5 674.5 449.5 681.5 456.5 678 456.5 678 575.5 671 575.5 671 456.5Z" stroke="#000000" stroke-width="1.33333" stroke-miterlimit="8" fill="#70AD47" fill-rule="evenodd"/><path d="M91 631 166.188 631" stroke="#000000" stroke-width="6" stroke-miterlimit="8" stroke-dasharray="6 6" fill="none" fill-rule="evenodd"/><path d="M91 659 166.188 659" stroke="#000000" stroke-width="6" stroke-miterlimit="8" fill="none" fill-rule="evenodd"/><text font-family="Malgun Gothic,Malgun Gothic_MSFontService,sans-serif" font-weight="400" font-size="24" transform="translate(175.57 668)">Thread Running<tspan font-size="24" x="-2.09859" y="-29">Thread Waiting</tspan></text></g></svg>