<?xml version="1.0" encoding="us-ascii" standalone="no"?><svg xmlns="http://www.w3.org/2000/svg" xmlns:xlink="http://www.w3.org/1999/xlink" contentStyleType="text/css" height="251px" preserveAspectRatio="none" style="width:314px;height:251px;background:#FFFFFF;" version="1.1" viewBox="0 0 314 251" width="314px" zoomAndPan="magnify"><defs/><g><!--class param_0--><g id="elem_param_0"><rect codeLine="1" fill="#F1F1F1" height="80.5938" id="param_0" rx="2.5" ry="2.5" style="stroke:#181818;stroke-width:0.5;" width="130" x="7" y="164"/><ellipse cx="38.2" cy="180" fill="#F1F1F1" rx="11" ry="11" style="stroke:#181818;stroke-width:1.0;"/><path d="M41.9813,175.9688 C41.9813,175.5313 41.9656,175.3906 41.8719,175.2344 C41.7313,175 41.45,174.8438 41.1531,174.8438 C40.8094,174.8438 40.6688,174.9844 40.4969,175.4063 C39.9031,175.0313 39.1531,174.8438 38.2781,174.8438 C36.1688,174.8438 34.5906,176.1406 34.5906,177.8594 C34.5906,178.8281 35.1219,179.7344 35.9813,180.2188 C36.5281,180.5313 37.075,180.7031 38.1844,180.8906 C39.3406,181.0938 39.6063,181.1563 39.9656,181.3438 C40.3406,181.5469 40.575,181.8906 40.575,182.25 C40.575,182.9844 39.5906,183.5313 38.3406,183.5313 C37.2156,183.5313 36.1375,183.0469 35.9656,182.4375 C35.8406,181.9688 35.8406,181.9688 35.7156,181.8594 C35.5594,181.7031 35.3406,181.6094 35.1063,181.6094 C34.825,181.6094 34.575,181.7344 34.4031,181.9531 C34.2938,182.125 34.2469,182.3125 34.2469,182.7344 L34.2469,183.8594 C34.2469,184.625 34.5281,184.9844 35.1219,184.9844 C35.3875,184.9844 35.5125,184.9219 35.7938,184.5781 C36.6375,185.0156 37.5281,185.2344 38.45,185.2344 C40.7781,185.2344 42.3406,184.0469 42.3406,182.2813 C42.3406,181.3906 42.0281,180.7031 41.3406,180.1563 C40.8094,179.7344 40.1688,179.4844 38.6844,179.2188 C37.4188,178.9844 37.325,178.9531 36.9969,178.7813 C36.6219,178.5938 36.3563,178.2031 36.3563,177.8438 C36.3563,177.1094 37.2156,176.5469 38.2781,176.5469 C39.3406,176.5469 40.1531,177.0156 40.3094,177.6875 C40.4188,178.2344 40.4188,178.2344 40.5438,178.375 C40.6844,178.5 40.9188,178.6094 41.1531,178.6094 C41.4188,178.6094 41.6688,178.4688 41.8406,178.25 C41.95,178.0781 41.9813,177.9375 41.9813,177.4688 L41.9813,175.9688 Z " fill="#000000"/><text fill="#000000" font-family="sans-serif" font-size="14" lengthAdjust="spacing" textLength="62" x="55.8" y="184.8467">param_0</text><line style="stroke:#181818;stroke-width:0.5;" x1="8" x2="136" y1="196" y2="196"/><rect fill="none" height="6" style="stroke:#C82930;stroke-width:1.0;" width="6" x="15" y="206.6484"/><text fill="#000000" font-family="sans-serif" font-size="14" lengthAdjust="spacing" textLength="55" x="27" y="212.9951">value: 0</text><rect fill="none" height="6" style="stroke:#C82930;stroke-width:1.0;" width="6" x="15" y="222.9453"/><text fill="#000000" font-family="sans-serif" font-size="14" lengthAdjust="spacing" textLength="104" x="27" y="229.292">type: Register</text><line style="stroke:#181818;stroke-width:0.5;" x1="8" x2="136" y1="236.5938" y2="236.5938"/></g><!--class param_1--><g id="elem_param_1"><rect codeLine="6" fill="#F1F1F1" height="80.5938" id="param_1" rx="2.5" ry="2.5" style="stroke:#181818;stroke-width:0.5;" width="135" x="172.5" y="164"/><ellipse cx="205.95" cy="180" fill="#F1F1F1" rx="11" ry="11" style="stroke:#181818;stroke-width:1.0;"/><path d="M209.7313,175.9688 C209.7313,175.5313 209.7156,175.3906 209.6219,175.2344 C209.4813,175 209.2,174.8438 208.9031,174.8438 C208.5594,174.8438 208.4188,174.9844 208.2469,175.4063 C207.6531,175.0313 206.9031,174.8438 206.0281,174.8438 C203.9188,174.8438 202.3406,176.1406 202.3406,177.8594 C202.3406,178.8281 202.8719,179.7344 203.7313,180.2188 C204.2781,180.5313 204.825,180.7031 205.9344,180.8906 C207.0906,181.0938 207.3563,181.1563 207.7156,181.3438 C208.0906,181.5469 208.325,181.8906 208.325,182.25 C208.325,182.9844 207.3406,183.5313 206.0906,183.5313 C204.9656,183.5313 203.8875,183.0469 203.7156,182.4375 C203.5906,181.9688 203.5906,181.9688 203.4656,181.8594 C203.3094,181.7031 203.0906,181.6094 202.8563,181.6094 C202.575,181.6094 202.325,181.7344 202.1531,181.9531 C202.0438,182.125 201.9969,182.3125 201.9969,182.7344 L201.9969,183.8594 C201.9969,184.625 202.2781,184.9844 202.8719,184.9844 C203.1375,184.9844 203.2625,184.9219 203.5438,184.5781 C204.3875,185.0156 205.2781,185.2344 206.2,185.2344 C208.5281,185.2344 210.0906,184.0469 210.0906,182.2813 C210.0906,181.3906 209.7781,180.7031 209.0906,180.1563 C208.5594,179.7344 207.9188,179.4844 206.4344,179.2188 C205.1688,178.9844 205.075,178.9531 204.7469,178.7813 C204.3719,178.5938 204.1063,178.2031 204.1063,177.8438 C204.1063,177.1094 204.9656,176.5469 206.0281,176.5469 C207.0906,176.5469 207.9031,177.0156 208.0594,177.6875 C208.1688,178.2344 208.1688,178.2344 208.2938,178.375 C208.4344,178.5 208.6688,178.6094 208.9031,178.6094 C209.1688,178.6094 209.4188,178.4688 209.5906,178.25 C209.7,178.0781 209.7313,177.9375 209.7313,177.4688 L209.7313,175.9688 Z " fill="#000000"/><text fill="#000000" font-family="sans-serif" font-size="14" lengthAdjust="spacing" textLength="62" x="224.05" y="184.8467">param_1</text><line style="stroke:#181818;stroke-width:0.5;" x1="173.5" x2="306.5" y1="196" y2="196"/><rect fill="none" height="6" style="stroke:#C82930;stroke-width:1.0;" width="6" x="180.5" y="206.6484"/><text fill="#000000" font-family="sans-serif" font-size="14" lengthAdjust="spacing" textLength="72" x="192.5" y="212.9951">value: 0x5</text><rect fill="none" height="6" style="stroke:#C82930;stroke-width:1.0;" width="6" x="180.5" y="222.9453"/><text fill="#000000" font-family="sans-serif" font-size="14" lengthAdjust="spacing" textLength="109" x="192.5" y="229.292">type: Constant</text><line style="stroke:#181818;stroke-width:0.5;" x1="173.5" x2="306.5" y1="236.5938" y2="236.5938"/></g><!--class user_instruction_t--><g id="elem_user_instruction_t"><rect codeLine="11" fill="#F1F1F1" height="96.8906" id="user_instruction_t" rx="2.5" ry="2.5" style="stroke:#181818;stroke-width:0.5;" width="161" x="75.5" y="7"/><ellipse cx="90.5" cy="23" fill="#F1F1F1" rx="11" ry="11" style="stroke:#181818;stroke-width:1.0;"/><path d="M94.2813,18.9688 C94.2813,18.5313 94.2656,18.3906 94.1719,18.2344 C94.0313,18 93.75,17.8438 93.4531,17.8438 C93.1094,17.8438 92.9688,17.9844 92.7969,18.4063 C92.2031,18.0313 91.4531,17.8438 90.5781,17.8438 C88.4688,17.8438 86.8906,19.1406 86.8906,20.8594 C86.8906,21.8281 87.4219,22.7344 88.2813,23.2188 C88.8281,23.5313 89.375,23.7031 90.4844,23.8906 C91.6406,24.0938 91.9063,24.1563 92.2656,24.3438 C92.6406,24.5469 92.875,24.8906 92.875,25.25 C92.875,25.9844 91.8906,26.5313 90.6406,26.5313 C89.5156,26.5313 88.4375,26.0469 88.2656,25.4375 C88.1406,24.9688 88.1406,24.9688 88.0156,24.8594 C87.8594,24.7031 87.6406,24.6094 87.4063,24.6094 C87.125,24.6094 86.875,24.7344 86.7031,24.9531 C86.5938,25.125 86.5469,25.3125 86.5469,25.7344 L86.5469,26.8594 C86.5469,27.625 86.8281,27.9844 87.4219,27.9844 C87.6875,27.9844 87.8125,27.9219 88.0938,27.5781 C88.9375,28.0156 89.8281,28.2344 90.75,28.2344 C93.0781,28.2344 94.6406,27.0469 94.6406,25.2813 C94.6406,24.3906 94.3281,23.7031 93.6406,23.1563 C93.1094,22.7344 92.4688,22.4844 90.9844,22.2188 C89.7188,21.9844 89.625,21.9531 89.2969,21.7813 C88.9219,21.5938 88.6563,21.2031 88.6563,20.8438 C88.6563,20.1094 89.5156,19.5469 90.5781,19.5469 C91.6406,19.5469 92.4531,20.0156 92.6094,20.6875 C92.7188,21.2344 92.7188,21.2344 92.8438,21.375 C92.9844,21.5 93.2188,21.6094 93.4531,21.6094 C93.7188,21.6094 93.9688,21.4688 94.1406,21.25 C94.25,21.0781 94.2813,20.9375 94.2813,20.4688 L94.2813,18.9688 Z " fill="#000000"/><text fill="#000000" font-family="sans-serif" font-size="14" lengthAdjust="spacing" textLength="129" x="104.5" y="27.8467">user_instruction_t</text><line style="stroke:#181818;stroke-width:0.5;" x1="76.5" x2="235.5" y1="39" y2="39"/><rect fill="none" height="6" style="stroke:#C82930;stroke-width:1.0;" width="6" x="83.5" y="49.6484"/><text fill="#000000" font-family="sans-serif" font-size="14" lengthAdjust="spacing" textLength="96" x="95.5" y="55.9951">instruction: 5</text><rect fill="none" height="6" style="stroke:#C82930;stroke-width:1.0;" width="6" x="83.5" y="65.9453"/><text fill="#000000" font-family="sans-serif" font-size="14" lengthAdjust="spacing" textLength="134" x="95.5" y="72.292">param: param_t[3]</text><rect fill="none" height="6" style="stroke:#C82930;stroke-width:1.0;" width="6" x="83.5" y="82.2422"/><text fill="#000000" font-family="sans-serif" font-size="14" lengthAdjust="spacing" textLength="111" x="95.5" y="88.5889">param_count: 2</text><line style="stroke:#181818;stroke-width:0.5;" x1="76.5" x2="235.5" y1="95.8906" y2="95.8906"/></g><!--link user_instruction_t to param_0--><g id="link_user_instruction_t_param_0"><path codeLine="17" d="M128.728,104.227 C118.57,122.002 107.097,142.08 97.1397,159.5056 " fill="none" id="user_instruction_t-to-param_0" style="stroke:#181818;stroke-width:1.0;"/><polygon fill="#181818" points="94.6426,163.8755,102.581,158.0461,97.1234,159.5344,95.6352,154.0768,94.6426,163.8755" style="stroke:#181818;stroke-width:1.0;"/></g><!--link user_instruction_t to param_1--><g id="link_user_instruction_t_param_1"><path codeLine="18" d="M183.272,104.227 C193.43,122.002 204.903,142.08 214.86,159.5056 " fill="none" id="user_instruction_t-to-param_1" style="stroke:#181818;stroke-width:1.0;"/><polygon fill="#181818" points="217.357,163.8755,216.3647,154.0768,214.8763,159.5343,209.4187,158.0459,217.357,163.8755" style="stroke:#181818;stroke-width:1.0;"/></g><!--SRC=[AoufAaqkKIX8B4hCZJTGgEPIKD1LA4lCAKsrKZ00Sqeg2u3ieDJqpEAIr2AkMYwkOcGzXcXwAaoHT3ddvnMN9EQL8EagBKujYi_CW_0oy_FYIw0688bPAK0C0TjW1RMe9Deu5Y4QdvnVcbTYfM04CXgBcRgwTZ1FuPSs1000]--></g></svg>