<svg width="483" height="312" xmlns="http://www.w3.org/2000/svg" xmlns:xlink="http://www.w3.org/1999/xlink" overflow="hidden"><defs><clipPath id="clip0"><rect x="296" y="183" width="483" height="312"/></clipPath></defs><g clip-path="url(#clip0)" transform="translate(-296 -183)"><path d="M489.5 430C489.5 403.214 511.214 381.5 538 381.5 564.786 381.5 586.5 403.214 586.5 430 586.5 456.786 564.786 478.5 538 478.5 511.214 478.5 489.5 456.786 489.5 430Z" stroke="#000000" stroke-linejoin="round" stroke-miterlimit="10" fill="none" fill-rule="evenodd"/><path d="M297.5 430C297.5 403.214 319.214 381.5 346 381.5 372.786 381.5 394.5 403.214 394.5 430 394.5 456.786 372.786 478.5 346 478.5 319.214 478.5 297.5 456.786 297.5 430Z" stroke="#000000" stroke-linejoin="round" stroke-miterlimit="10" fill="none" fill-rule="evenodd"/><path d="M681.5 430C681.5 403.214 703.214 381.5 730 381.5 756.786 381.5 778.5 403.214 778.5 430 778.5 456.786 756.786 478.5 730 478.5 703.214 478.5 681.5 456.786 681.5 430Z" stroke="#000000" stroke-linejoin="round" stroke-miterlimit="10" fill="none" fill-rule="evenodd"/><path d="M489.5 233C489.5 206.214 511.214 184.5 538 184.5 564.786 184.5 586.5 206.214 586.5 233 586.5 259.786 564.786 281.5 538 281.5 511.214 281.5 489.5 259.786 489.5 233Z" stroke="#000000" stroke-linejoin="round" stroke-miterlimit="10" fill="none" fill-rule="evenodd"/><path d="M297.5 233C297.5 206.214 319.214 184.5 346 184.5 372.786 184.5 394.5 206.214 394.5 233 394.5 259.786 372.786 281.5 346 281.5 319.214 281.5 297.5 259.786 297.5 233Z" stroke="#000000" stroke-linejoin="round" stroke-miterlimit="10" fill="none" fill-rule="evenodd"/><path d="M379.771 267.306 484.573 413.477 484.031 413.865 379.229 267.694ZM486.776 410.257 488.187 419.089 480.275 414.918Z"/><path d="M394.5 430.167 483.235 430.167 483.235 430.833 394.5 430.833ZM481.902 426.5 489.902 430.5 481.902 434.5Z"/><path d="M572.77 267.305 678.435 413.491 677.895 413.881 572.23 267.695ZM680.626 410.262 682.07 419.089 674.142 414.949Z"/><path d="M586.5 430.167 675.235 430.167 675.235 430.833 586.5 430.833ZM673.902 426.5 681.902 430.5 673.902 434.5Z" fill="#4472C4"/><text font-family="Cambria Math,Cambria Math_MSFontService,sans-serif" font-weight="400" font-size="24" transform="translate(422.516 326)">𝑤</text><text font-family="Cambria Math,Cambria Math_MSFontService,sans-serif" font-weight="400" font-size="18" transform="translate(439.382 331)">00</text><text font-family="Cambria Math,Cambria Math_MSFontService,sans-serif" font-weight="400" font-size="24" transform="translate(422.863 459)">𝑤</text><text font-family="Cambria Math,Cambria Math_MSFontService,sans-serif" font-weight="400" font-size="18" transform="translate(439.729 464)">01</text><path d="M587.5 430.167 676.235 430.167 676.235 430.833 587.5 430.833ZM674.902 426.5 682.902 430.5 674.902 434.5Z"/><text font-family="Cambria Math,Cambria Math_MSFontService,sans-serif" font-weight="400" font-size="24" transform="translate(615.489 326)">𝑤</text><text font-family="Cambria Math,Cambria Math_MSFontService,sans-serif" font-weight="400" font-size="18" transform="translate(631.802 331)">10</text><text font-family="Cambria Math,Cambria Math_MSFontService,sans-serif" font-weight="400" font-size="24" transform="translate(614.772 459)">𝑤</text><text font-family="Cambria Math,Cambria Math_MSFontService,sans-serif" font-weight="400" font-size="18" transform="translate(631.085 464)">11</text><text font-family="Cambria Math,Cambria Math_MSFontService,sans-serif" font-weight="400" font-size="24" transform="translate(339.053 439)">𝑥</text><text font-family="Cambria Math,Cambria Math_MSFontService,sans-serif" font-weight="400" font-size="24" transform="translate(339.179 241)">1</text><text font-family="Cambria Math,Cambria Math_MSFontService,sans-serif" font-weight="400" font-size="24" transform="translate(513.155 438)">𝑧</text><text font-family="Cambria Math,Cambria Math_MSFontService,sans-serif" font-weight="400" font-size="18" transform="translate(523.682 443)">1</text><text font-family="Cambria Math,Cambria Math_MSFontService,sans-serif" font-weight="400" font-size="24" transform="translate(534.842 438)"></text><text font-family="Cambria Math,Cambria Math_MSFontService,sans-serif" font-weight="400" font-size="24" transform="translate(540.175 438)"></text><text font-family="Cambria Math,Cambria Math_MSFontService,sans-serif" font-weight="400" font-size="24" transform="translate(545.509 438)">ℎ</text><text font-family="Cambria Math,Cambria Math_MSFontService,sans-serif" font-weight="400" font-size="24" transform="translate(703.825 438)">𝑧</text><text font-family="Cambria Math,Cambria Math_MSFontService,sans-serif" font-weight="400" font-size="18" transform="translate(714.905 443)">2</text><text font-family="Cambria Math,Cambria Math_MSFontService,sans-serif" font-weight="400" font-size="24" transform="translate(726.065 438)"></text><text font-family="Cambria Math,Cambria Math_MSFontService,sans-serif" font-weight="400" font-size="24" transform="translate(731.398 438)"></text><text font-family="Cambria Math,Cambria Math_MSFontService,sans-serif" font-weight="400" font-size="24" transform="translate(736.731 438)">𝑦</text><path d="M5.75391-16.8984 9.73828-13.207 9.10547-12.5391 4.96875-15.3867 4.83984-15.3867 0.632812-12.5391 0-13.207 4.18359-16.8984Z" transform="translate(739.878 438)"/><text fill="#000000" fill-opacity="0" font-family="Arial,Arial_MSFontService,sans-serif" font-size="4.35938" y="-13.084">ො</text><path d="M537.5 381.5 537.5 478.248" stroke="#000000" stroke-width="0.666667" stroke-miterlimit="8" fill="none" fill-rule="evenodd"/><path d="M728.5 381.5 728.5 478.248" stroke="#000000" stroke-width="0.666667" stroke-miterlimit="8" fill="none" fill-rule="evenodd"/><text font-family="Cambria Math,Cambria Math_MSFontService,sans-serif" font-weight="400" font-size="24" transform="translate(529.534 241)">1</text><text font-family="Cambria Math,Cambria Math_MSFontService,sans-serif" font-weight="400" font-size="24" transform="translate(492.788 370)">𝑠𝑖𝑔𝑚𝑜𝑖𝑑</text><text font-family="Cambria Math,Cambria Math_MSFontService,sans-serif" font-weight="400" font-size="24" transform="translate(693.897 368)">𝑙𝑖𝑛𝑒𝑎𝑟</text></g></svg>